<svg xmlns="http://www.w3.org/2000/svg" viewBox="0 0 500 500"><g id="freepik--background-simple--inject-72"><path d="M91.33,121.49c57.08-51.33,129.37,52.88,170.18,54.69,51.15,2.27,161.22-94.72,179.82-4.3C452.66,227,426,281.4,385.33,311.75,329.22,353.63,191.12,363,122.66,348.3,88,340.85,50,309.27,55.33,266c4.65-37.72,40.33-39.16,46-57.79C108.13,185.87,60.66,149.07,91.33,121.49Z" style="fill:#1B63CD"></path><path d="M91.33,121.49c57.08-51.33,129.37,52.88,170.18,54.69,51.15,2.27,161.22-94.72,179.82-4.3C452.66,227,426,281.4,385.33,311.75,329.22,353.63,191.12,363,122.66,348.3,88,340.85,50,309.27,55.33,266c4.65-37.72,40.33-39.16,46-57.79C108.13,185.87,60.66,149.07,91.33,121.49Z" style="fill:#fff;opacity:0.9"></path></g><g id="freepik--Table--inject-72"><path d="M308.54,232.35l-.37-.61h-7.36l-.37.61a1.73,1.73,0,0,0-.23.86V249a1.73,1.73,0,0,0,.23.86l.37.61h7.36l.37-.61a1.74,1.74,0,0,0,.24-.86V233.21A1.74,1.74,0,0,0,308.54,232.35Z" style="fill:#263238"></path><path d="M308.87,231.93h-8.75a.49.49,0,0,1-.49-.49h0a.49.49,0,0,1,.49-.49h8.75a.49.49,0,0,1,.49.49h0A.49.49,0,0,1,308.87,231.93Z" style="fill:#1B63CD"></path><path d="M308.87,231.93h-8.75a.49.49,0,0,1-.49-.49h0a.49.49,0,0,1,.49-.49h8.75a.49.49,0,0,1,.49.49h0A.49.49,0,0,1,308.87,231.93Z" style="fill:#fff;opacity:0.5"></path><path d="M308.87,251.23h-8.75a.49.49,0,0,1-.49-.49h0a.49.49,0,0,1,.49-.49h8.75a.49.49,0,0,1,.49.49h0A.49.49,0,0,1,308.87,251.23Z" style="fill:#1B63CD"></path><path d="M308.87,251.23h-8.75a.49.49,0,0,1-.49-.49h0a.49.49,0,0,1,.49-.49h8.75a.49.49,0,0,1,.49.49h0A.49.49,0,0,1,308.87,251.23Z" style="fill:#fff;opacity:0.5"></path><polygon points="300.21 246.33 308.78 243.46 308.78 235.85 300.21 238.72 300.21 246.33" style="fill:#fff;opacity:0.8"></polygon><path d="M319.45,232.35l-.37-.61h-7.36l-.37.61a1.73,1.73,0,0,0-.23.86V249a1.73,1.73,0,0,0,.23.86l.37.61h7.36l.37-.61a1.74,1.74,0,0,0,.24-.86V233.21A1.74,1.74,0,0,0,319.45,232.35Z" style="fill:#263238"></path><path d="M319.77,231.93H311a.5.5,0,0,1-.5-.49h0a.5.5,0,0,1,.5-.49h8.74a.49.49,0,0,1,.5.49h0A.49.49,0,0,1,319.77,231.93Z" style="fill:#1B63CD"></path><path d="M319.77,231.93H311a.5.5,0,0,1-.5-.49h0a.5.5,0,0,1,.5-.49h8.74a.49.49,0,0,1,.5.49h0A.49.49,0,0,1,319.77,231.93Z" style="fill:#fff;opacity:0.5"></path><path d="M319.77,251.23H311a.5.5,0,0,1-.5-.49h0a.5.5,0,0,1,.5-.49h8.74a.49.49,0,0,1,.5.49h0A.49.49,0,0,1,319.77,251.23Z" style="fill:#1B63CD"></path><path d="M319.77,251.23H311a.5.5,0,0,1-.5-.49h0a.5.5,0,0,1,.5-.49h8.74a.49.49,0,0,1,.5.49h0A.49.49,0,0,1,319.77,251.23Z" style="fill:#fff;opacity:0.5"></path><polygon points="311.12 246.33 319.69 243.46 319.69 235.85 311.12 238.72 311.12 246.33" style="fill:#fff;opacity:0.8"></polygon><path d="M314.18,252.51l-.37-.61h-7.36l-.37.61a1.74,1.74,0,0,0-.23.87v15.75a1.7,1.7,0,0,0,.23.86l.37.62h7.36l.37-.62a1.71,1.71,0,0,0,.24-.86V253.38A1.75,1.75,0,0,0,314.18,252.51Z" style="fill:#263238"></path><path d="M314.51,252.1h-8.75a.5.5,0,0,1-.49-.5h0a.49.49,0,0,1,.49-.49h8.75a.49.49,0,0,1,.49.49h0A.5.5,0,0,1,314.51,252.1Z" style="fill:#1B63CD"></path><path d="M314.51,252.1h-8.75a.5.5,0,0,1-.49-.5h0a.49.49,0,0,1,.49-.49h8.75a.49.49,0,0,1,.49.49h0A.5.5,0,0,1,314.51,252.1Z" style="fill:#fff;opacity:0.5"></path><path d="M314.51,271.4h-8.75a.49.49,0,0,1-.49-.49h0a.49.49,0,0,1,.49-.5h8.75a.49.49,0,0,1,.49.5h0A.49.49,0,0,1,314.51,271.4Z" style="fill:#1B63CD"></path><path d="M314.51,271.4h-8.75a.49.49,0,0,1-.49-.49h0a.49.49,0,0,1,.49-.5h8.75a.49.49,0,0,1,.49.5h0A.49.49,0,0,1,314.51,271.4Z" style="fill:#fff;opacity:0.5"></path><polygon points="305.85 266.49 314.42 263.62 314.42 256.02 305.85 258.89 305.85 266.49" style="fill:#fff;opacity:0.8"></polygon><path d="M324.25,252.51l-.37-.61h-7.36l-.36.61a1.65,1.65,0,0,0-.24.87v15.75a1.62,1.62,0,0,0,.24.86l.36.62h7.36l.37-.62a1.62,1.62,0,0,0,.24-.86V253.38A1.65,1.65,0,0,0,324.25,252.51Z" style="fill:#263238"></path><path d="M324.58,252.1h-8.75a.5.5,0,0,1-.49-.5h0a.49.49,0,0,1,.49-.49h8.75a.49.49,0,0,1,.49.49h0A.5.5,0,0,1,324.58,252.1Z" style="fill:#1B63CD"></path><path d="M324.58,252.1h-8.75a.5.5,0,0,1-.49-.5h0a.49.49,0,0,1,.49-.49h8.75a.49.49,0,0,1,.49.49h0A.5.5,0,0,1,324.58,252.1Z" style="fill:#fff;opacity:0.5"></path><path d="M324.58,271.4h-8.75a.49.49,0,0,1-.49-.49h0a.49.49,0,0,1,.49-.5h8.75a.49.49,0,0,1,.49.5h0A.49.49,0,0,1,324.58,271.4Z" style="fill:#1B63CD"></path><path d="M324.58,271.4h-8.75a.49.49,0,0,1-.49-.49h0a.49.49,0,0,1,.49-.5h8.75a.49.49,0,0,1,.49.5h0A.49.49,0,0,1,324.58,271.4Z" style="fill:#fff;opacity:0.5"></path><polygon points="315.92 266.49 324.49 263.62 324.49 256.02 315.92 258.89 315.92 266.49" style="fill:#fff;opacity:0.8"></polygon><path d="M303.74,252.51l-.37-.61H296l-.37.61a1.75,1.75,0,0,0-.24.87v15.75a1.71,1.71,0,0,0,.24.86l.37.62h7.36l.37-.62a1.7,1.7,0,0,0,.23-.86V253.38A1.74,1.74,0,0,0,303.74,252.51Z" style="fill:#263238"></path><path d="M304.06,252.1h-8.74a.5.5,0,0,1-.5-.5h0a.49.49,0,0,1,.5-.49h8.74a.49.49,0,0,1,.5.49h0A.5.5,0,0,1,304.06,252.1Z" style="fill:#1B63CD"></path><path d="M304.06,252.1h-8.74a.5.5,0,0,1-.5-.5h0a.49.49,0,0,1,.5-.49h8.74a.49.49,0,0,1,.5.49h0A.5.5,0,0,1,304.06,252.1Z" style="fill:#fff;opacity:0.5"></path><path d="M304.06,271.4h-8.74a.49.49,0,0,1-.5-.49h0a.5.5,0,0,1,.5-.5h8.74a.5.5,0,0,1,.5.5h0A.49.49,0,0,1,304.06,271.4Z" style="fill:#1B63CD"></path><path d="M304.06,271.4h-8.74a.49.49,0,0,1-.5-.49h0a.5.5,0,0,1,.5-.5h8.74a.5.5,0,0,1,.5.5h0A.49.49,0,0,1,304.06,271.4Z" style="fill:#fff;opacity:0.5"></path><polygon points="295.4 266.49 303.98 263.62 303.98 256.02 295.4 258.89 295.4 266.49" style="fill:#fff;opacity:0.8"></polygon><path d="M314.18,212.19l-.37-.62h-7.36l-.37.62a1.7,1.7,0,0,0-.23.86V228.8a1.74,1.74,0,0,0,.23.87l.37.61h7.36l.37-.61a1.75,1.75,0,0,0,.24-.87V213.05A1.71,1.71,0,0,0,314.18,212.19Z" style="fill:#263238"></path><path d="M314.51,211.77h-8.75a.49.49,0,0,1-.49-.5h0a.49.49,0,0,1,.49-.49h8.75a.49.49,0,0,1,.49.49h0A.49.49,0,0,1,314.51,211.77Z" style="fill:#1B63CD"></path><path d="M314.51,211.77h-8.75a.49.49,0,0,1-.49-.5h0a.49.49,0,0,1,.49-.49h8.75a.49.49,0,0,1,.49.49h0A.49.49,0,0,1,314.51,211.77Z" style="fill:#fff;opacity:0.5"></path><path d="M314.51,231.07h-8.75a.49.49,0,0,1-.49-.49h0a.5.5,0,0,1,.49-.5h8.75a.5.5,0,0,1,.49.5h0A.49.49,0,0,1,314.51,231.07Z" style="fill:#1B63CD"></path><path d="M314.51,231.07h-8.75a.49.49,0,0,1-.49-.49h0a.5.5,0,0,1,.49-.5h8.75a.5.5,0,0,1,.49.5h0A.49.49,0,0,1,314.51,231.07Z" style="fill:#fff;opacity:0.5"></path><polygon points="305.85 226.16 314.42 223.29 314.42 215.69 305.85 218.56 305.85 226.16" style="fill:#fff;opacity:0.8"></polygon><path d="M290.69,276.43h5.6a0,0,0,0,1,0,0V394.71a1.47,1.47,0,0,1-1.47,1.47h-2.66a1.47,1.47,0,0,1-1.47-1.47V276.43A0,0,0,0,1,290.69,276.43Z" style="fill:#263238"></path><path d="M304.59,276.43h5.6a0,0,0,0,1,0,0V394.71a1.47,1.47,0,0,1-1.47,1.47h-2.66a1.47,1.47,0,0,1-1.47-1.47V276.43A0,0,0,0,1,304.59,276.43Z" style="fill:#263238"></path><path d="M399.49,276.43h5.6a0,0,0,0,1,0,0V394.71a1.47,1.47,0,0,1-1.47,1.47H401a1.47,1.47,0,0,1-1.47-1.47V276.43A0,0,0,0,1,399.49,276.43Z" style="fill:#263238"></path><path d="M413.39,276.43H419a0,0,0,0,1,0,0V394.71a1.47,1.47,0,0,1-1.47,1.47h-2.66a1.47,1.47,0,0,1-1.47-1.47V276.43A0,0,0,0,1,413.39,276.43Z" style="fill:#263238"></path><path d="M428.87,271.49c12.91,4.8,16.43,25.4,0,28-6.16,1-11.81-7.56-18.46-7.56s-11.81,7.56-18.46,7.56S380.14,292,373.49,292s-11.81,7.56-18.46,7.56S343.22,292,336.57,292s-11.81,7.56-18.46,7.56S306.3,292,299.65,292s-12.29,8.55-18.46,7.56c-16.42-2.62-14-23.73,0-28Z" style="fill:#1B63CD"></path><path d="M428.87,271.49c12.91,4.8,16.43,25.4,0,28-6.16,1-11.81-7.56-18.46-7.56s-11.81,7.56-18.46,7.56S380.14,292,373.49,292s-11.81,7.56-18.46,7.56S343.22,292,336.57,292s-11.81,7.56-18.46,7.56S306.3,292,299.65,292s-12.29,8.55-18.46,7.56c-16.42-2.62-14-23.73,0-28Z" style="opacity:0.2"></path><path d="M270,289.46H439.75A15.59,15.59,0,0,0,439,282H270.58A15.07,15.07,0,0,0,270,289.46Z" style="fill:#fff;opacity:0.5"></path><path d="M308.92,295.75V271.49h-7.48v20.66C304.07,292.66,306.49,294.2,308.92,295.75Z" style="fill:#fff;opacity:0.5"></path><path d="M421.74,297.34V271.49h-7.48v21.33C416.84,293.91,419.3,295.83,421.74,297.34Z" style="fill:#fff;opacity:0.5"></path><path d="M336.57,292c.19,0,.37,0,.55,0v-20.5h-7.47V294.3A13.69,13.69,0,0,1,336.57,292Z" style="fill:#fff;opacity:0.5"></path><path d="M280.71,299.41V271.66a16,16,0,0,0-7.48,5.33v18.7A13.89,13.89,0,0,0,280.71,299.41Z" style="fill:#fff;opacity:0.5"></path><path d="M392,299.51a9.1,9.1,0,0,0,1.58-.15V271.49h-7.47v26.26A12.37,12.37,0,0,0,392,299.51Z" style="fill:#fff;opacity:0.5"></path><path d="M365.33,295.05V271.49h-7.48v27.57C360.45,298.28,362.88,296.6,365.33,295.05Z" style="fill:#fff;opacity:0.5"></path><rect x="273.23" y="281.98" width="7.48" height="7.48" style="fill:#fff"></rect><rect x="301.44" y="281.98" width="7.48" height="7.48" style="fill:#fff"></rect><rect x="329.65" y="281.98" width="7.48" height="7.48" style="fill:#fff"></rect><rect x="357.85" y="281.98" width="7.48" height="7.48" style="fill:#fff"></rect><rect x="386.06" y="281.98" width="7.48" height="7.48" style="fill:#fff"></rect><rect x="414.26" y="281.98" width="7.48" height="7.48" style="fill:#fff"></rect><path d="M407.78,220.78V205a2.21,2.21,0,0,0-2.22-2.22h-2.15A2.21,2.21,0,0,0,401.2,205v15.81l-2.84,4.73a16.23,16.23,0,0,0-2.32,8.36v35.4a2.89,2.89,0,0,0,2.9,2.89H410a2.89,2.89,0,0,0,2.89-2.89v-35.4a16.32,16.32,0,0,0-2.31-8.36Z" style="fill:#1B63CD"></path><path d="M407.78,220.78V205a2.21,2.21,0,0,0-2.22-2.22h-2.15A2.21,2.21,0,0,0,401.2,205v15.81l-2.84,4.73a16.23,16.23,0,0,0-2.32,8.36v35.4a2.89,2.89,0,0,0,2.9,2.89H410a2.89,2.89,0,0,0,2.89-2.89v-35.4a16.32,16.32,0,0,0-2.31-8.36Z" style="fill:#263238"></path><path d="M401.38,247.69c0,12.57.24,22.75-.62,22.75s-1.57-10.18-1.57-22.75,1.64-22.76,2.5-22.76S401.38,235.12,401.38,247.69Z" style="fill:#fff;opacity:0.6000000000000001"></path><path d="M403.63,213.06c0,4.42-.45,8-1,8s-.15-3.59-.15-8,.45-8,1-8S403.63,208.63,403.63,213.06Z" style="fill:#fff;opacity:0.6000000000000001"></path><path d="M337.87,271.72h-8a1.28,1.28,0,0,1-1.27-1.22l-.79-19.59h12.09l-.8,19.59A1.27,1.27,0,0,1,337.87,271.72Z" style="fill:#263238"></path><rect x="326.93" y="249.5" width="13.92" height="1.41" rx="0.63" style="fill:#1B63CD"></rect><rect x="326.93" y="249.5" width="13.92" height="1.41" rx="0.63" style="fill:#fff;opacity:0.5"></rect><g style="opacity:0.4"><path d="M294.82,270.91a.49.49,0,0,0,.5.49h8.74a.5.5,0,1,0,0-1h-.57l.25-.42a1.7,1.7,0,0,0,.23-.86V253.38a1.74,1.74,0,0,0-.23-.87l-.25-.41h.57a.5.5,0,0,0,.5-.5.47.47,0,0,0-.18-.37h1.06a.5.5,0,0,0,.32.87h.58l-.26.41a1.74,1.74,0,0,0-.23.87v15.75a1.7,1.7,0,0,0,.23.86l.26.42h-.58a.5.5,0,0,0,0,1h8.75a.5.5,0,0,0,0-1h-.58l.25-.42a1.71,1.71,0,0,0,.24-.86V253.38a1.75,1.75,0,0,0-.24-.87l-.25-.41h.58a.5.5,0,0,0,.49-.5.47.47,0,0,0-.18-.37h.69a.5.5,0,0,0,.32.87h.58l-.25.41a1.65,1.65,0,0,0-.24.87v5.51h0v7.6h0v2.64a1.62,1.62,0,0,0,.24.86l.25.42h-.58a.5.5,0,0,0,0,1h8.75a.5.5,0,0,0,0-1H324l.25-.42a1.62,1.62,0,0,0,.24-.86V253.38a1.65,1.65,0,0,0-.24-.87l-.25-.41h.58a.5.5,0,0,0,.49-.5.49.49,0,0,0-.49-.49h-4.49a.47.47,0,0,0,.18-.37.49.49,0,0,0-.49-.49h-.58l.25-.42a1.74,1.74,0,0,0,.24-.86V233.21a1.74,1.74,0,0,0-.24-.86l-.25-.42h.58a.49.49,0,0,0,0-1h-5a.47.47,0,0,0,.18-.37.5.5,0,0,0-.49-.5h-.58l.25-.41a1.75,1.75,0,0,0,.24-.87V213.05a1.71,1.71,0,0,0-.24-.86l-.25-.42h.58a.5.5,0,0,0,0-1h-8.75a.5.5,0,0,0,0,1h.58l-.26.42a1.7,1.7,0,0,0-.23.86V228.8a1.74,1.74,0,0,0,.23.87l.26.41h-.58a.5.5,0,0,0-.32.87h-5.32a.49.49,0,0,0,0,1h.58l-.25.42a1.64,1.64,0,0,0-.24.86V249a1.64,1.64,0,0,0,.24.86l.25.42h-.58a.49.49,0,0,0-.49.49.5.5,0,0,0,.17.37h-4.48a.49.49,0,0,0-.5.49.5.5,0,0,0,.5.5h.57l-.25.41a1.75,1.75,0,0,0-.24.87v15.75a1.71,1.71,0,0,0,.24.86l.25.42h-.57A.5.5,0,0,0,294.82,270.91Zm13.72-21.08a1.74,1.74,0,0,0,.24-.86V233.21a1.74,1.74,0,0,0-.24-.86l-.25-.42h.58a.49.49,0,0,0,.49-.49.47.47,0,0,0-.18-.37h1.53a.51.51,0,0,0-.18.37.5.5,0,0,0,.5.49h.58l-.26.42a1.73,1.73,0,0,0-.23.86v5.51h0v7.61h0V249a1.73,1.73,0,0,0,.23.86l.26.42H311a.5.5,0,0,0-.5.49.51.51,0,0,0,.18.37h-1.53a.47.47,0,0,0,.18-.37.49.49,0,0,0-.49-.49h-.58Z" style="fill:#fff"></path><path d="M439.89,286.82v-.2l-.06-.75,0-.26c0-.25-.07-.5-.11-.75,0-.08,0-.15,0-.23A16.71,16.71,0,0,0,439,282h0a17.31,17.31,0,0,0-10.08-10.49h-17a2.89,2.89,0,0,0,1.06-2.22v-35.4a16.32,16.32,0,0,0-2.31-8.36l-2.84-4.73V205a2.21,2.21,0,0,0-2.21-2.22h-2.16A2.21,2.21,0,0,0,401.2,205v15.81l-2.84,4.73a16.23,16.23,0,0,0-2.32,8.36v35.4a2.89,2.89,0,0,0,1.06,2.22H338.56a1.23,1.23,0,0,0,.58-1l.8-19.59h.28a.63.63,0,0,0,.63-.63v-.15a.63.63,0,0,0-.63-.63H327.56a.63.63,0,0,0-.63.63v.15a.63.63,0,0,0,.63.63h.29l.79,19.59a1.26,1.26,0,0,0,.58,1h-48a15.94,15.94,0,0,0-8,5.5h0a16.56,16.56,0,0,0-2.65,5h0a15.81,15.81,0,0,0-.73,3.58l0,.24,0,.69v.38c0,.21,0,.42,0,.62l0,.46c0,.19,0,.37.05.56s.08.59.13.89a12,12,0,0,0,3.23,6.28h0a12.1,12.1,0,0,0,2.2,1.75l.12.07c.26.16.53.31.8.45l.14.07a15.73,15.73,0,0,0,4.7,1.48c3.23.52,6.32-1.59,9.49-3.71v98.91a1.47,1.47,0,0,0,1.47,1.47h2.66a1.47,1.47,0,0,0,1.47-1.47V292.63a9.64,9.64,0,0,1,3.36-.68,8.92,8.92,0,0,1,1.79.2,13.23,13.23,0,0,1,3.15,1.09V394.71a1.47,1.47,0,0,0,1.47,1.47h2.66a1.47,1.47,0,0,0,1.47-1.47V296.56c2.53,1.58,5.09,2.95,7.92,2.95,4.19,0,7.79-3,11.54-5.21h0l.9-.51.38-.2.66-.33.38-.18c.28-.13.56-.24.84-.35l.19-.08c.34-.13.68-.23,1-.33l.31-.07a7.55,7.55,0,0,1,.8-.16l.33-.05a8,8,0,0,1,1.1-.08c.19,0,.37,0,.55,0h0c6.38.4,11.46,7.52,17.91,7.52,2.69,0,5.14-1.24,7.54-2.71h0c.89-.55,1.79-1.13,2.68-1.69l.07-.05h0c2.6-1.63,5.24-3.1,8.16-3.1,4.58,0,8.47,3.59,12.61,5.83q.48.25,1,.48l.23.11c.33.15.67.29,1,.42l.18.06.93.3.18.05c.34.08.69.15,1,.21l.23,0a10.15,10.15,0,0,0,1.1.07c.33,0,.64,0,1-.06a16.32,16.32,0,0,0,6.58-2.65v97.91a1.47,1.47,0,0,0,1.47,1.47h2.66a1.47,1.47,0,0,0,1.47-1.47V293.42a11.81,11.81,0,0,1,5.32-1.47,9.24,9.24,0,0,1,3,.55V394.71a1.47,1.47,0,0,0,1.47,1.47h2.66a1.47,1.47,0,0,0,1.47-1.47V295.54c.78.52,1.55,1,2.33,1.53l.42.27h0c2.36,1.46,4.71,2.56,7.13,2.17C436.86,298.24,440.12,292.71,439.89,286.82Z" style="fill:#fff"></path></g></g><g id="freepik--character-2--inject-72"><path d="M169.76,151.49l-3.43-7,1.42-9.16a2.93,2.93,0,0,0-1.4-3l-.8-.46a2.89,2.89,0,0,0-3.22.18l-3.17,2.37a2.91,2.91,0,0,0-1.16,2.33,26.34,26.34,0,0,0,0,3.94,38,38,0,0,0,2.12,5.22l3.27,9.31Z" style="fill:#ce7a63"></path><path d="M171.5,143.48h-7.57a1.21,1.21,0,0,1-1.2-1.16L162,123.71h11.49l-.75,18.61A1.22,1.22,0,0,1,171.5,143.48Z" style="fill:#1B63CD"></path><rect x="161.1" y="122.37" width="13.22" height="1.34" rx="0.63" style="fill:#1B63CD"></rect><rect x="161.1" y="122.37" width="13.22" height="1.34" rx="0.63" style="fill:#fff;opacity:0.5"></rect><path d="M202.77,155.31c-3.65.68-12.52,3.59-22.62,9a2.19,2.19,0,0,1-3.09-1.18l-7.95-15.4-8,3.59s6.54,28.75,12.42,29.73c4,.67,14.75-3.45,21.31-6.19a11.44,11.44,0,0,0,6.69-7.77l2.6-10.35A1.16,1.16,0,0,0,202.77,155.31Z" style="fill:#1B63CD"></path><path d="M202.77,155.31c-3.65.68-12.52,3.59-22.62,9a2.19,2.19,0,0,1-3.09-1.18l-7.95-15.4-8,3.59s6.54,28.75,12.42,29.73c4,.67,14.75-3.45,21.31-6.19a11.44,11.44,0,0,0,6.69-7.77l2.6-10.35A1.16,1.16,0,0,0,202.77,155.31Z" style="fill:#fff;opacity:0.5"></path><path d="M202.5,163.18h-3.74s-4.24,10.38-10.9,14.44c2.51-.93,4.94-1.91,7-2.76a11.44,11.44,0,0,0,6.69-7.77Z" style="opacity:0.2"></path><polygon points="223.34 379.33 226.65 403.22 235.59 403.22 233.63 378.22 223.34 379.33" style="fill:#ce7a63"></polygon><path d="M222.55,399.79a3.87,3.87,0,0,1-2.65-.74.8.8,0,0,1,0-.93,1.1,1.1,0,0,1,.68-.49c1.52-.39,4.64,1.47,4.78,1.56a.23.23,0,0,1,.1.22.21.21,0,0,1-.18.17A16.08,16.08,0,0,1,222.55,399.79ZM221.14,398a1.44,1.44,0,0,0-.41.05.58.58,0,0,0-.42.29c-.17.26-.11.39-.05.47.4.59,2.69.65,4.37.47A10.05,10.05,0,0,0,221.14,398Z" style="fill:#1B63CD"></path><path d="M225.29,399.58a.14.14,0,0,1-.09,0c-1.07-.5-3.21-2.5-3-3.51,0-.25.22-.54.81-.59a1.55,1.55,0,0,1,1.18.39c1.14,1,1.33,3.41,1.34,3.52a.19.19,0,0,1-.1.19A.17.17,0,0,1,225.29,399.58Zm-2.15-3.7-.12,0c-.39,0-.41.18-.43.24-.07.61,1.33,2.17,2.44,2.85a5.05,5.05,0,0,0-1.15-2.79,1.12,1.12,0,0,0-.74-.28Z" style="fill:#1B63CD"></path><path d="M226.27,398.33l9.87.18a.81.81,0,0,1,.77.64l1.63,8.06a1.32,1.32,0,0,1-1,1.57,1.27,1.27,0,0,1-.28,0c-3.55-.13-6.72-.38-11.15-.46-5.23-.09-3.91.56-10.06.54-3.71,0-4.31-4.25-2.73-4.42,7.2-.78,8-2.94,10.81-5.46A3.23,3.23,0,0,1,226.27,398.33Z" style="fill:#263238"></path><polygon points="234.83 393.45 233.84 380.8 223.34 379.33 225.35 393.83 234.83 393.45" style="opacity:0.2"></polygon><polygon points="182.45 379.33 184.77 403.22 193.72 403.22 193.72 378.22 182.45 379.33" style="fill:#ce7a63"></polygon><path d="M180.68,399.79c-1.12,0-2.28-.25-2.64-.74a.8.8,0,0,1,0-.93,1.1,1.1,0,0,1,.68-.49c1.52-.39,4.64,1.47,4.78,1.56a.2.2,0,0,1,.1.22.21.21,0,0,1-.18.17A16,16,0,0,1,180.68,399.79Zm-1.4-1.79a1.4,1.4,0,0,0-.41.05.6.6,0,0,0-.43.29c-.16.26-.11.39-.05.47.41.59,2.69.65,4.38.47A10.2,10.2,0,0,0,179.28,398Z" style="fill:#1B63CD"></path><path d="M183.42,399.58a.14.14,0,0,1-.09,0c-1.07-.5-3.21-2.5-3-3.51,0-.25.22-.54.81-.59a1.58,1.58,0,0,1,1.19.39c1.13,1,1.33,3.41,1.34,3.52a.23.23,0,0,1-.1.19A.2.2,0,0,1,183.42,399.58Zm-2.14-3.7-.13,0c-.38,0-.41.18-.43.24-.06.61,1.33,2.17,2.44,2.85a5.05,5.05,0,0,0-1.15-2.79,1.09,1.09,0,0,0-.73-.28Z" style="fill:#1B63CD"></path><path d="M184.4,398.33l9.87.18a.8.8,0,0,1,.77.64l1.64,8.06a1.33,1.33,0,0,1-1,1.57l-.28,0c-3.56-.13-6.72-.38-11.15-.46-5.23-.09-3.92.56-10.07.54-3.7,0-4.3-4.25-2.73-4.42,7.21-.78,8-2.94,10.81-5.46A3.23,3.23,0,0,1,184.4,398.33Z" style="fill:#263238"></path><polygon points="193.72 393.23 193.72 383.21 183 385.02 183.87 393.96 193.72 393.23" style="opacity:0.2"></polygon><path d="M187.24,229.12s-7.19,29.08-8.82,84S182,391.82,182,391.82l14.38-1.63s2-48.52,2-64.69c0-3.27.65-13.07.65-13.07s3.41-36.5,8.82-47.37c3.92-7.88,8.78-10.44,7.17-34.46Z" style="fill:#1B63CD"></path><path d="M187.24,229.12s-7.19,29.08-8.82,84S182,391.82,182,391.82l14.38-1.63s2-48.52,2-64.69c0-3.27.65-13.07.65-13.07s3.41-36.5,8.82-47.37c3.92-7.88,8.78-10.44,7.17-34.46Z" style="opacity:0.2"></path><path d="M212,257.46l.19-3.1-7-1.47s-4.09,20.63-3.76,39.47h0c1.53-10.37,3.71-21.95,6.37-27.31C209.22,262.25,210.73,260.12,212,257.46Z" style="opacity:0.2"></path><path d="M202.27,232.39s-.39,6,.87,21c.28,3.3,2.63,10.77,3.1,14.51,1.87,14.83,2.07,32.65,4.52,50.13,5.88,41.82,11.11,72.2,11.11,72.2l15.68-1s-2.36-39.46-3.72-52.89c-.53-5.25-1.83-20.95-1.83-20.95S229.3,279,230.69,267c1-8.6,5.23-12.41,1.64-34.63l-30.06-3.27Z" style="fill:#1B63CD"></path><path d="M202.27,232.39s-.39,6,.87,21c.28,3.3,2.63,10.77,3.1,14.51,1.87,14.83,2.07,32.65,4.52,50.13,5.88,41.82,11.11,72.2,11.11,72.2l15.68-1s-2.36-39.46-3.72-52.89c-.53-5.25-1.83-20.95-1.83-20.95S229.3,279,230.69,267c1-8.6,5.23-12.41,1.64-34.63l-30.06-3.27Z" style="opacity:0.2"></path><path d="M187.57,228.47s-10.11-5.81,1.63-36.84c7-18.58,9.59-28.16,10.53-32.78a5,5,0,0,1,4.82-4c7.31-.15,22.72.53,36.6,7.74A5.3,5.3,0,0,1,244,167.5c-.4,9.36-2.35,37.17-11.65,65.62Z" style="fill:#1B63CD"></path><path d="M187.57,228.47s-10.11-5.81,1.63-36.84c7-18.58,9.59-28.16,10.53-32.78a5,5,0,0,1,4.82-4c7.31-.15,22.72.53,36.6,7.74A5.3,5.3,0,0,1,244,167.5c-.4,9.36-2.35,37.17-11.65,65.62Z" style="fill:#fff;opacity:0.5"></path><path d="M216.56,163.49a1.25,1.25,0,1,1-1.25-1.25A1.25,1.25,0,0,1,216.56,163.49Z" style="fill:#fff"></path><circle cx="209.8" cy="178.42" r="1.25" style="fill:#fff"></circle><path d="M204.64,196a1.25,1.25,0,1,1-1.25-1.25A1.25,1.25,0,0,1,204.64,196Z" style="fill:#fff"></path><path d="M202.68,213.49a1.25,1.25,0,1,1-1.25-1.25A1.25,1.25,0,0,1,202.68,213.49Z" style="fill:#fff"></path><polygon points="180.22 387.7 181.2 392.35 197.49 390.76 197.86 385.68 180.22 387.7" style="fill:#1B63CD"></polygon><polygon points="220.2 387.35 221.18 392.01 238.6 390.96 238.6 386.02 220.2 387.35" style="fill:#1B63CD"></polygon><path d="M214.47,153.21l2.09,4.61,2.86,1,10.82-3.08c-2.57-3,.62-9.06,1.64-14.17.39-1.91-4.2-3.37-5.68-2.38l-8.82,5.05C218,147.89,217.79,151.22,214.47,153.21Z" style="fill:#ce7a63"></path><path d="M222.8,151a15.54,15.54,0,0,0,5.49-2.45,36.47,36.47,0,0,1,.78-7c.38-1.91-1.39-3.37-2.87-2.38l-8.82,5.05c.45,2.64.46,5.09-.8,7A15.17,15.17,0,0,0,222.8,151Z" style="opacity:0.2;isolation:isolate"></path><path d="M237.22,133c-2.06,7.67-2.89,12.28-8.11,15.37-7.85,4.68-17.94-1-18.46-9.26-.47-7.37,3-18.68,12.23-20S239.32,125.34,237.22,133Z" style="fill:#ce7a63"></path><path d="M222.79,130.49c-.26.64-.83,1-1.25.84s-.55-.85-.27-1.49.83-1,1.26-.84S223.07,129.85,222.79,130.49Z" style="fill:#263238"></path><path d="M215.23,129.05c-.28.65-.83,1-1.26.85s-.54-.85-.26-1.5.83-1,1.25-.84S215.51,128.43,215.23,129.05Z" style="fill:#263238"></path><path d="M226.23,128.91a.4.4,0,0,1-.31-.29,3.24,3.24,0,0,0-1.89-2.3.41.41,0,0,1-.26-.52h0a.4.4,0,0,1,.52-.26h0a4.12,4.12,0,0,1,2.42,2.87.41.41,0,0,1-.29.5Z" style="fill:#263238"></path><path d="M213.29,125a.4.4,0,0,1-.3-.49.38.38,0,0,1,.13-.22,4.11,4.11,0,0,1,3.62-1,.4.4,0,0,1,.29.5h0a.41.41,0,0,1-.5.28h0a3.31,3.31,0,0,0-2.87.81A.37.37,0,0,1,213.29,125Z" style="fill:#263238"></path><path d="M216.73,130.24a21.28,21.28,0,0,1-4.41,3.9,3.45,3.45,0,0,0,2.53,1.46Z" style="fill:#ba4d3c"></path><path d="M213.07,137.77s3-.35,11,.34c-1.19,2.11-3.17,3.74-7.31,3.36S213.07,137.77,213.07,137.77Z" style="fill:#263238"></path><path d="M218.9,139.92a8.29,8.29,0,0,0-4.63.66,4.59,4.59,0,0,0,2.51.88,8.23,8.23,0,0,0,4.62-.67A4.6,4.6,0,0,0,218.9,139.92Z" style="fill:#ff5652"></path><path d="M213.45,137.74a1.53,1.53,0,0,0,1.13,1.2,48.07,48.07,0,0,0,7.2.06,2.38,2.38,0,0,0,1.95-.92A75.11,75.11,0,0,0,213.45,137.74Z" style="fill:#fff"></path><polygon points="214.68 153 217.95 157.08 230.69 155.29 235 159.99 221.22 164.6 217.46 159.53 211.42 162.64 209.62 155 214.68 153" style="fill:#1B63CD"></polygon><polygon points="214.68 153 217.95 157.08 230.69 155.29 235 159.99 221.22 164.6 217.46 159.53 211.42 162.64 209.62 155 214.68 153" style="opacity:0.2"></polygon><path d="M187.67,226.79c3.69,0,18.07.3,44.41,4.05a1.16,1.16,0,0,1,1,.93l.46,2.45a.91.91,0,0,1-1,1.08,417.62,417.62,0,0,0-45.26-4.12,1.16,1.16,0,0,1-1.11-1.39l.4-2.06A1.17,1.17,0,0,1,187.67,226.79Z" style="fill:#263238"></path><path d="M221.22,234.18v-5.32a.65.65,0,0,0-.62-.65l-.91-.06a.66.66,0,0,0-.7.66v5.32a.62.62,0,0,0,.59.62l1,0A.61.61,0,0,0,221.22,234.18Z" style="fill:#263238"></path><path d="M221.22,234.18v-5.32a.65.65,0,0,0-.62-.65l-.91-.06a.66.66,0,0,0-.7.66v5.32a.62.62,0,0,0,.59.62l1,0A.61.61,0,0,0,221.22,234.18Z" style="fill:#fff;opacity:0.2"></path><path d="M188.18,231.51l.75-5a.68.68,0,0,1,.72-.58l.81.05a.67.67,0,0,1,.63.78l-.74,5a.61.61,0,0,1-.67.52l-1-.1A.61.61,0,0,1,188.18,231.51Z" style="fill:#263238"></path><path d="M188.18,231.51l.75-5a.68.68,0,0,1,.72-.58l.81.05a.67.67,0,0,1,.63.78l-.74,5a.61.61,0,0,1-.67.52l-1-.1A.61.61,0,0,1,188.18,231.51Z" style="fill:#fff;opacity:0.2"></path><path d="M196.81,232.36c3,.21,6.39.47,9.25.71v-5.74c-3.27-.3-6.22-.53-8.86-.72Z" style="fill:#fff"></path><path d="M242.09,175.71h-2.34a110.2,110.2,0,0,0,.9,22.84c1.31-7.87,2.12-14.91,2.62-20.53Z" style="opacity:0.30000000000000004"></path><path d="M223.67,212.79l-5.66.81-2.92-4.12a3,3,0,0,0-2.45-1.27h-1.32a3,3,0,0,0-2.58,1.46h0a3,3,0,0,0-.06,3l2.61,4.7a3,3,0,0,0,1.85,1.45l4.49,1.21a3.47,3.47,0,0,0,.78.1h7.38Z" style="fill:#ce7a63"></path><path d="M244.11,163.94c3.75,4,12.93,16.43,11.57,42.1a12.87,12.87,0,0,1-7.4,11,48.35,48.35,0,0,1-25.71,3.77l-1.35-8.62,18.62-6.66a4.6,4.6,0,0,0,3-5c-.48-3.34-1.14-8-1.42-10-.91-6.4-3.58-13.87.45-26.16A1.33,1.33,0,0,1,244.11,163.94Z" style="fill:#1B63CD"></path><path d="M244.11,163.94c3.75,4,12.93,16.43,11.57,42.1a12.87,12.87,0,0,1-7.4,11,48.35,48.35,0,0,1-25.71,3.77l-1.35-8.62,18.62-6.66a4.6,4.6,0,0,0,3-5c-.48-3.34-1.14-8-1.42-10-.91-6.4-3.58-13.87.45-26.16A1.33,1.33,0,0,1,244.11,163.94Z" style="fill:#fff;opacity:0.5"></path><path d="M234.46,139.08s-2.23-4.9-.87-9.35a8,8,0,0,0-1.94-7.65s-10,1.55-14.44-2.18a1.74,1.74,0,0,1,1.68-3l.07,0a3.21,3.21,0,0,1,4.65-.8s3.2-2.17,5.26.61c0,0,3.26-.58,4.72,2.13a5.13,5.13,0,0,1,3.58,3.86,5,5,0,0,1,2.23,3.89s1.83,3.58,0,5.81c0,0,1.25,3.12-1.41,4.71,0,0-.49,3.65-2.16,3.54A1.34,1.34,0,0,1,234.46,139.08Z" style="fill:#263238"></path><path d="M237.49,140.72a6.56,6.56,0,0,1-4.29,2c-2.06.05-2.26-2.06-1-3.93,1.11-1.64,3.5-3.65,5.22-2.83S239,139.19,237.49,140.72Z" style="fill:#ce7a63"></path></g><g id="freepik--character-1--inject-72"><path d="M111,160.71c-4-5.44-1.67-9.73-4.18-13.12s-13.45-8-19.54,0c0,0-6.77,3.7-4.63,15.33s-3,12.1,1.47,17.17c3.91,4.39,13.91-.92,21.13-1.89a3.65,3.65,0,0,0,1.79-.74,15.78,15.78,0,0,0,3.93-4.37,7.23,7.23,0,0,1-2.46,5C115.46,178.79,115,166.12,111,160.71Z" style="fill:#263238"></path><path d="M125.05,156.77a30.51,30.51,0,0,0-.57,6c0,7,2.15,9.32,4.8,9.32s4.8-2.32,4.8-9.32a29.77,29.77,0,0,0-.57-6Z" style="fill:#1B63CD"></path><path d="M125.05,156.77a30.51,30.51,0,0,0-.57,6c0,7,2.15,9.32,4.8,9.32s4.8-2.32,4.8-9.32a29.77,29.77,0,0,0-.57-6Z" style="fill:#fff;opacity:0.5"></path><path d="M132.82,156.77h-7.07c-.16,2.13-.24,5.12-.24,6.34,0,5.5,1.69,7.33,3.77,7.33s3.78-1.83,3.78-7.33C133.06,161.89,133,158.9,132.82,156.77Z" style="fill:#fff;opacity:0.5"></path><path d="M125.51,163.11c0,5.5,1.69,7.33,3.77,7.33s3.78-1.83,3.78-7.33c0-.22,0-.52,0-.85h-7.53C125.51,162.59,125.51,162.89,125.51,163.11Z" style="fill:#1B63CD"></path><polygon points="70.33 231.98 63.41 253.03 61.46 263.26 63.87 267.93 70.33 264.92 68.98 252.28 76.65 234.23 70.33 231.98" style="fill:#eec1bb"></polygon><path d="M136.89,183.92l-5.24-8.09a1.31,1.31,0,0,1-.21-.57l-.84-6.69a1.23,1.23,0,0,1,0-.43l1.15-5.93a1.36,1.36,0,0,1,2.08-.88l4.84,3.13a1.52,1.52,0,0,1,.54,1.95l-3.58,7.36,9.14,10.15Z" style="fill:#eec1bb"></path><path d="M145,176.47s11,20.76,1.35,24.15-27.08-4.52-27.08-4.52-4.06-9.4-1.12-15.42l20.08,9.11-6.1-7.45Z" style="fill:#1B63CD"></path><path d="M145,176.47s11,20.76,1.35,24.15-27.08-4.52-27.08-4.52-4.06-9.4-1.12-15.42l20.08,9.11-6.1-7.45Z" style="opacity:0.2"></path><path d="M119.34,185.79l-1.84,2.57,1.79,7.74a75.86,75.86,0,0,0,12.39,4.17A36.48,36.48,0,0,1,119.34,185.79Z" style="opacity:0.5"></path><path d="M106.43,321.32s5.1-5.94,19.82-4.66l-1.74-14.06-23.94,4.28Z" style="fill:#263238"></path><path d="M109.14,264.24l.23,133.35h-7s-9.25-56.41-5.64-66.68A339.52,339.52,0,0,1,85.9,282.29l-1.13-20.08,2-18.95,22.57-1.13Z" style="fill:#eec1bb"></path><path d="M121.78,242.13,154,397.59h-6.32s-22.56-55.28-20.53-67.92a187.23,187.23,0,0,1-22.79-55.5s-11.73-6.05-9-31.34Z" style="fill:#eec1bb"></path><path d="M118.17,181.59s4.56,15.89,5.11,21.36c.66,6.51-.9,26.17-.9,26.17l3,24.87,10.53,53.95C110,320,92,318.17,92,318.17c-17.14-59.27-3.91-83.94-3.91-83.94L77,187.9C95.45,178.13,118.17,181.59,118.17,181.59Z" style="fill:#1B63CD"></path><path d="M118.17,181.59s4.56,15.89,5.11,21.36c.66,6.51-.9,26.17-.9,26.17l3,24.87,10.53,53.95C110,320,92,318.17,92,318.17c-17.14-59.27-3.91-83.94-3.91-83.94L77,187.9C95.45,178.13,118.17,181.59,118.17,181.59Z" style="fill:#fff;opacity:0.5"></path><path d="M165.36,403.27A12.18,12.18,0,0,1,157.7,398l-4.18-5.74-.07-3.18s-2.45-1.86-4.5-.13a11.7,11.7,0,0,1-4.33,2.28l.93,3.52c-1.15,1.43.79,10.24,1.89,14l1.07-.16a42.29,42.29,0,0,0-.21-6.89c4.58,8.33,19.19,5,19.18,3.06C167.47,404,166.53,403.56,165.36,403.27Z" style="fill:#263238"></path><path d="M120.14,405.42a12.2,12.2,0,0,1-7-6.15l-3.46-6.19.3-3.16s-2.22-2.15-4.45-.66A11.69,11.69,0,0,1,101,391l.52,3.61c-1.31,1.28-.42,10.25.23,14.09l1.08,0a42,42,0,0,0,.6-6.86c3.56,8.81,18.47,7.19,18.68,5.3C122.15,406.41,121.27,405.85,120.14,405.42Z" style="fill:#263238"></path><path d="M91.6,166.85c1.66,4.67,3.89,13.35,1,17.06a56.21,56.21,0,0,0,13.47,5.47c4.7-5.2,1.49-7.66,1.49-7.66-5.56-.53-6-4.5-5.66-8.37Z" style="fill:#eec1bb"></path><path d="M102.22,178.06a12,12,0,0,1-.33-4.71l-5-3.17h-3L93,171.66A10.83,10.83,0,0,0,102.22,178.06Z" style="opacity:0.1"></path><path d="M86.56,161c3.1,7.53,4.24,10.78,9.47,13.4,7.87,3.94,16.43-1.51,15.65-9.81-.71-7.47-5.65-18.52-14.21-19A11.09,11.09,0,0,0,86.56,161Z" style="fill:#eec1bb"></path><path d="M104.5,158.5a17.54,17.54,0,0,0,3.6,3.23,2.84,2.84,0,0,1-2.08,1.19Z" style="fill:#d4827d"></path><path d="M97.54,157.07a.29.29,0,0,1-.16,0,.32.32,0,0,1-.17-.42h0a3.77,3.77,0,0,1,2.64-2.27.34.34,0,0,1,.37.27.32.32,0,0,1-.26.37,3.15,3.15,0,0,0-2.16,1.89A.32.32,0,0,1,97.54,157.07Z" style="fill:#263238"></path><path d="M108.67,153.22a.33.33,0,0,1-.17,0,3.15,3.15,0,0,0-2.85.2.33.33,0,0,1-.45-.07h0a.32.32,0,0,1,.09-.45,3.8,3.8,0,0,1,3.47-.27.31.31,0,0,1,.19.41.3.3,0,0,1-.27.21Z" style="fill:#263238"></path><path d="M99.73,159c.21.63.72,1,1.13.88s.57-.75.35-1.38-.72-1-1.13-.88S99.52,158.34,99.73,159Z" style="fill:#263238"></path><path d="M106.81,156.56c.21.62.71,1,1.12.88s.57-.76.35-1.39-.71-1-1.12-.88S106.59,155.93,106.81,156.56Z" style="fill:#263238"></path><path d="M107,155.27l1.36-1S108,155.76,107,155.27Z" style="fill:#263238"></path><path d="M99.92,157.68l1.35-.94S100.9,158.17,99.92,157.68Z" style="fill:#263238"></path><path d="M118.17,180.68s5,12.94,6,20.27-1.1,27.27-1.1,27.27l20.09,85.53L135,316.66c-9-58.66-25.64-136.57-25.64-136.57Z" style="fill:#1B63CD"></path><path d="M118.17,180.68s5,12.94,6,20.27-1.1,27.27-1.1,27.27l20.09,85.53L135,316.66c-9-58.66-25.64-136.57-25.64-136.57Z" style="opacity:0.2"></path><path d="M115.53,209.69l-1.11-29.26-5-.34S111.9,191.87,115.53,209.69Z" style="fill:#263238"></path><path d="M108,181a79.12,79.12,0,0,0-17.3,1.9c3.39,3.88,10.82,11.58,14.49,10.57C108.73,192.51,109.36,185.52,108,181Z" style="fill:#eec1bb"></path><path d="M119.23,232.69c-2,4.23-7.9,11.85-22.74,3.14a.75.75,0,0,1,.49-1.38c4.28.66,11.51.71,20.92-3.17A1,1,0,0,1,119.23,232.69Z" style="opacity:0.1"></path><path d="M77,187,70.48,223l-5.56,13.24L76.2,240.1S92,212.27,77,187Z" style="fill:#1B63CD"></path><path d="M77,187,70.48,223l-5.56,13.24L76.2,240.1S92,212.27,77,187Z" style="opacity:0.2"></path><path d="M82.38,200.91l-2-1.72s1.77,17.27.83,28.12A56.31,56.31,0,0,0,82.38,200.91Z" style="opacity:0.5"></path><path d="M90.74,182s6.89,39.15,2.16,71.19,7.67,72.65,7.67,72.65H92s-17.82-62.73-5-93.19L77,187Z" style="fill:#1B63CD"></path><path d="M90.74,182s6.89,39.15,2.16,71.19,7.67,72.65,7.67,72.65H92s-17.82-62.73-5-93.19L77,187Z" style="opacity:0.2"></path><path d="M85.67,183.84l8.2,25.34C92.77,193.52,90.74,182,90.74,182Z" style="fill:#263238"></path><path d="M89.63,167.22s3.91-3.84,2.45-10.57l.45-1.32a6.3,6.3,0,0,1,.51,6s5.36-6.22,1.62-10.53a4,4,0,0,1,2.54,4s5.49-3.76,1.53-6.16c0,0,3-.26,3.21,3.33,0,0,5.11.05,3.61-3s-10-7.82-16.79-1.2C88.76,147.82,78.68,155.7,89.63,167.22Z" style="fill:#263238"></path><path d="M86.82,167.73a5.94,5.94,0,0,0,3.85,2.41c2.06.32,2.85-1.57,2.08-3.39-.69-1.64-2.6-3.78-4.58-3.28a2.7,2.7,0,0,0-1.84,3.33A2.52,2.52,0,0,0,86.82,167.73Z" style="fill:#eec1bb"></path><path d="M107.76,165.46a37.76,37.76,0,0,0-6.53.2c.71,1.25,1.88,2.21,4.33,2S107.76,165.46,107.76,165.46Z" style="fill:#263238"></path><path d="M104.31,166.73a4.88,4.88,0,0,1,2.74.39,2.66,2.66,0,0,1-1.49.52,4.75,4.75,0,0,1-2.73-.4A2.69,2.69,0,0,1,104.31,166.73Z" style="fill:#ff5652"></path><path d="M107.54,165.44a.92.92,0,0,1-.67.71,27.67,27.67,0,0,1-4.27,0,1.36,1.36,0,0,1-1.15-.54A44.22,44.22,0,0,1,107.54,165.44Z" style="fill:#fff"></path></g></svg>